<?xml version="1.0" encoding="utf-8"?>
<!-- Generator: Adobe Illustrator 18.1.1, SVG Export Plug-In . SVG Version: 6.00 Build 0)  -->
<svg version="1.1" id="Capa_1" xmlns="http://www.w3.org/2000/svg" xmlns:xlink="http://www.w3.org/1999/xlink" x="0px" y="0px"
	 viewBox="-584 -140 778.7 331" enable-background="new -584 -140 778.7 331" xml:space="preserve">
<g opacity="5.000000e-02">
	<path fill="#C2C3C9" d="M-92.2-80.2C-179-179.8-271-95.5-271-95.5l-33.2,35.8l-263.1,260.5h33.2L-317-16.3
		c0,0,66.4-53.6,132.8,10.2c63.9,63.9,204.3,206.9,204.3,206.9h53.6l0,0l-7.7-7.7L-166.3-34.2c-69-61.3-137.9-2.6-140.5,0
		C-219.9-118.5-156-44.4-156-44.4L94.3,200.8l0,0l0,0h10.2h23h5.1l-7.7-7.7L-140.7-62.3c-69-61.3-137.9-2.6-140.5,0
		c86.8-84.3,150.7-10.2,150.7-10.2l278.4,273.3l0,0l2.6,2.6h38.3C186.2,200.8-7.9,14.3-92.2-80.2z"/>
</g>
<circle opacity="5.000000e-02" fill="#C2C3C9" enable-background="new    " cx="-226.3" cy="91.4" r="53.9"/>
</svg>
